<svg width="86" height="86" viewBox="0 0 86 86" fill="none" xmlns="http://www.w3.org/2000/svg">
<path d="M57.51 70.6645C73.0116 62.5208 79.0073 43.4012 70.9017 27.9597C62.7961 12.5181 43.6587 6.60207 28.1571 14.7458C12.6554 22.8894 6.65975 42.009 14.7653 57.4506C22.8709 72.8921 42.0084 78.8081 57.51 70.6645Z" fill="black"/>
<path d="M28.3937 35.7102C29.8856 33.6749 32.0897 32.4198 34.599 32.1484C36.4979 31.9448 38.2611 32.3519 39.9226 33.3696C40.7704 33.8784 41.5164 34.523 42.2284 35.3032C42.7371 34.3873 43.3474 33.5731 44.0595 32.8947C45.4498 31.5378 47.1113 30.7576 48.9763 30.554C51.4855 30.2827 53.927 31.0289 55.8259 32.6911C57.6908 34.3194 58.8777 36.694 59.1828 39.3739C59.488 42.1216 58.742 44.7675 56.8431 47.6849C55.1477 50.2969 52.5706 53.0107 49.5867 56.1994C48.5694 57.2849 47.4165 58.5061 46.2297 59.7952C45.9245 60.1344 45.4837 60.3718 45.009 60.4058C44.5342 60.4736 44.0934 60.3379 43.6865 60.0665C42.2284 59.0489 40.8382 58.099 39.6175 57.2849C36.0231 54.8425 32.9035 52.7393 30.6655 50.5683C28.1563 48.1598 26.8677 45.7174 26.5626 42.9696C26.2913 40.2898 26.9356 37.7117 28.3937 35.7102Z" fill="white"/>
</svg>
