<svg width="89" height="89" viewBox="0 0 89 89" fill="none" xmlns="http://www.w3.org/2000/svg">
<path d="M59.2384 74.44C75.672 66.4366 82.5485 46.703 74.5975 30.3639C66.6464 14.0247 46.8788 7.26728 30.4451 15.2707C14.0115 23.2741 7.13504 43.0077 15.0861 59.3469C23.0371 75.686 42.8048 82.4435 59.2384 74.44Z" fill="#FFBD44"/>
<path d="M44.6757 78.5664C41.1492 78.5664 37.5549 78.0237 34.0622 76.8364C25.5172 73.9869 18.5998 68.0166 14.5986 59.943C10.5974 51.9034 9.98701 42.7783 12.8693 34.2298C18.8372 16.6241 38.0296 7.02403 55.6961 12.8926C64.2411 15.7421 71.1585 21.7124 75.1597 29.786C79.1609 37.8256 79.7713 46.9507 76.8891 55.4992C72.074 69.6109 58.8157 78.5664 44.6757 78.5664ZM45.0148 12.6891C31.4852 12.6891 18.8033 21.2375 14.2256 34.7386C11.479 42.9139 12.0554 51.632 15.8871 59.2985C19.7188 66.9989 26.331 72.7318 34.5031 75.4456C51.3896 81.0428 69.7343 71.8837 75.431 55.0582C78.1776 46.8829 77.6012 38.1648 73.7695 30.4983C69.9378 22.7979 63.3255 17.0651 55.1535 14.3513C51.7966 13.1979 48.3718 12.6891 45.0148 12.6891Z" fill="black"/>
<path d="M61.6977 39.5223C61.3586 47.7654 47.4221 67.0333 44.0991 71.545C43.76 72.0199 43.0479 71.986 42.7427 71.4772C40.6404 68.0849 33.6891 56.687 30.0608 47.4601C28.6028 43.7965 27.6872 40.4721 27.7889 38.1314C28.1619 28.7688 36.0627 21.4755 45.4215 21.8487C54.7803 22.2897 62.0707 30.1597 61.6977 39.5223Z" fill="black"/>
<path d="M50.227 44.342C53.2595 41.3084 53.2595 36.3899 50.227 33.3562C47.1946 30.3226 42.278 30.3225 39.2456 33.3562C36.2132 36.3899 36.2132 41.3084 39.2456 44.342C42.278 47.3757 47.1946 47.3757 50.227 44.342Z" fill="#FFBD44"/>
</svg>
