<svg width="296" height="319" viewBox="0 0 296 319" fill="none" xmlns="http://www.w3.org/2000/svg">
<path d="M131.976 317.192C126.517 319.058 120.277 315.361 118.107 308.949L84.334 209.998L104.069 203.247L137.876 302.334C140.046 308.678 137.401 315.327 131.976 317.192Z" fill="black"/>
<path d="M129.027 318.413C127.433 318.413 125.805 318.04 124.245 317.26C121.092 315.699 118.583 312.782 117.362 309.186L83.5887 210.234C83.4531 209.861 83.6565 209.42 84.0634 209.285L103.798 202.534C104.002 202.466 104.205 202.466 104.375 202.568C104.544 202.67 104.68 202.805 104.748 203.009L138.555 302.096C140.827 308.813 137.978 315.903 132.18 317.904C131.197 318.244 130.112 318.413 129.027 318.413ZM85.2842 210.472L118.82 308.711C119.905 311.934 122.143 314.58 124.924 315.937C127.162 317.022 129.569 317.226 131.739 316.48C136.758 314.749 139.199 308.508 137.165 302.571L103.595 204.196L85.2842 210.472Z" fill="black"/>
<path d="M100.575 117.83L36.7247 163.388L11.8695 189.203L2.10378 206.47L2.06987 206.605C0.137068 209.591 1.25606 216.477 4.8843 223.499C8.44472 230.419 13.4632 235.236 16.9897 235.507L16.888 235.575L35.6396 237.611L70.7352 232.013L145.233 205.35L237.838 221.226L238.482 221.26C215.221 216.918 183.821 185.811 161 141.814C138.214 97.8501 130.957 54.3955 140.96 32.9565H140.926L101.084 116.745L100.575 117.83Z" fill="#FFBD44"/>
<path d="M253.875 219.345C276.761 207.455 272.336 153.551 243.99 98.947C215.645 44.3433 174.113 9.71729 151.227 21.6075C128.34 33.4978 132.766 87.4017 161.111 142.005C189.457 196.609 230.989 231.235 253.875 219.345Z" fill="white"/>
<path d="M243.81 222.448C233.841 222.448 221.837 216.885 208.918 206.063C191.319 191.341 174.06 168.647 160.327 142.119C139.541 101.955 130.962 60.7735 138.49 37.1974C140.999 29.3274 145.203 23.832 150.934 20.8807C162.327 15.0461 178.366 19.9987 196.134 34.8568C213.733 49.5791 230.993 72.2732 244.726 98.8005C265.546 138.965 274.125 180.147 266.563 203.723C264.054 211.593 259.849 217.088 254.118 220.039C251.033 221.668 247.574 222.448 243.81 222.448ZM161.31 19.9987C157.818 19.9987 154.562 20.7111 151.646 22.2376C146.255 24.9853 142.321 30.2094 139.948 37.7062C132.522 60.9431 141.067 101.684 161.683 141.509C189.76 195.683 230.925 230.352 253.474 218.784C258.866 216.036 262.799 210.812 265.173 203.316C272.599 180.079 264.054 139.338 243.437 99.5129C218.989 52.3607 184.673 19.9987 161.31 19.9987Z" fill="black"/>
<path d="M243.806 222.447C233.837 222.447 221.833 216.884 208.914 206.063C191.315 191.34 174.056 168.646 160.323 142.119C139.537 101.955 130.958 60.7728 138.486 37.1967C140.995 29.3267 145.2 23.8313 150.93 20.88C158.56 16.945 168.529 17.9288 179.753 23.6956C190.502 29.2249 202.132 39.0285 213.458 52.0208C213.729 52.3261 213.695 52.801 213.39 53.0724C213.085 53.3438 212.61 53.3099 212.339 53.0046C189.349 26.6129 166.087 14.8079 151.642 22.2369C146.251 24.9846 142.317 30.2087 139.944 37.7055C132.518 60.9424 141.063 101.683 161.679 141.508C186.094 188.626 220.443 221.022 243.772 221.022C247.265 221.022 250.52 220.31 253.436 218.783C258.828 216.036 262.761 210.812 265.135 203.315C272.561 180.078 264.016 139.337 243.399 99.5122C237.262 87.6393 230.345 76.4789 222.918 66.3361C222.681 65.9968 222.749 65.5219 223.088 65.2845C223.427 65.047 223.902 65.1149 224.139 65.4541C231.633 75.6647 238.55 86.8931 244.756 98.8338C265.542 138.964 274.121 180.146 266.559 203.722C264.05 211.592 259.845 217.087 254.115 220.039C251.029 221.667 247.57 222.447 243.806 222.447Z" fill="black"/>
<path d="M201.945 149.836C207.247 147.082 206.227 134.605 199.668 121.968C193.108 109.331 183.492 101.32 178.19 104.075C172.888 106.83 173.908 119.307 180.468 131.943C187.027 144.58 196.643 152.591 201.945 149.836Z" fill="#FFBD44"/>
<path d="M199.623 151.143C193.791 151.143 185.653 143.612 179.787 132.248C174.904 122.818 172.903 113.116 174.7 107.519C175.345 105.551 176.396 104.16 177.854 103.414C183.618 100.463 193.486 108.502 200.335 121.698C205.218 131.129 207.219 140.83 205.422 146.428C204.777 148.395 203.726 149.786 202.268 150.532C201.454 150.939 200.573 151.143 199.623 151.143ZM180.499 104.262C179.787 104.262 179.108 104.398 178.532 104.703C177.413 105.28 176.599 106.365 176.091 107.96C174.429 113.184 176.362 122.478 181.075 131.57C187.314 143.612 196.707 151.72 201.556 149.209C202.675 148.633 203.489 147.547 203.998 145.953C205.659 140.695 203.692 131.434 199.013 122.343C193.52 111.793 185.653 104.262 180.499 104.262Z" fill="#FFBD44"/>
<path d="M238.653 209.794C229.905 209.794 219.393 204.909 208.068 195.444C192.673 182.554 177.55 162.675 165.546 139.472C147.337 104.329 139.843 68.2691 146.421 47.6104C148.626 40.6902 152.322 35.8732 157.374 33.2612C168.971 27.3248 186.027 34.1771 204.202 52.0542C204.507 52.3595 204.507 52.8005 204.202 53.1058C203.897 53.4111 203.456 53.4111 203.151 53.1058C185.45 35.7036 169.005 28.9191 158.052 34.5842C153.373 36.9927 149.948 41.5044 147.846 48.0514C141.369 68.337 148.829 103.956 166.868 138.794C188.197 180.01 218.206 208.301 238.619 208.301C241.671 208.301 244.486 207.656 247.063 206.367C251.742 203.959 255.167 199.447 257.269 192.9C263.746 172.615 256.286 136.996 238.246 102.158C232.787 91.6417 226.684 81.7703 220.105 72.8487C219.868 72.5095 219.936 72.0345 220.275 71.7971C220.614 71.5596 221.089 71.6275 221.326 71.9667C227.972 80.9901 234.11 90.8954 239.603 101.479C257.812 136.623 265.306 172.682 258.727 193.341C256.523 200.261 252.827 205.078 247.775 207.69C244.994 209.081 241.943 209.794 238.653 209.794Z" fill="black"/>
<path d="M35.6767 238.323C35.6428 238.323 35.6089 238.323 35.6089 238.323L16.8573 236.288C16.7556 236.288 16.6539 236.254 16.5521 236.186C12.6865 235.576 7.80368 230.691 4.24326 223.838C0.44547 216.613 -0.67352 209.557 1.39492 206.233L1.42883 206.131L11.1946 188.83C11.2285 188.763 11.2624 188.729 11.2963 188.695L36.1514 162.88C36.1853 162.846 36.2193 162.812 36.2532 162.778L99.9339 117.322L140.218 32.6177C140.319 32.4481 140.455 32.3124 140.658 32.2445C140.862 32.1767 141.065 32.1767 141.235 32.2785C141.608 32.4481 141.777 32.8891 141.608 33.2622C131.401 55.1422 139.472 98.6307 161.648 141.441C183.858 184.319 214.817 216.07 238.655 220.446C239.028 220.514 239.299 220.853 239.265 221.26C239.231 221.633 238.892 221.905 238.519 221.939L237.875 221.905C237.841 221.905 237.807 221.905 237.773 221.905L145.338 206.063L71.0097 232.658C70.9758 232.658 70.9079 232.692 70.874 232.692L35.7784 238.289C35.7445 238.323 35.7106 238.323 35.6767 238.323ZM17.3999 234.863L35.6767 236.831L70.6028 231.234L145.066 204.604C145.202 204.57 145.304 204.537 145.439 204.57L228.652 218.818C206.17 208.946 179.891 179.807 160.393 142.153C141.031 104.771 132.385 66.8115 137.132 42.8283L101.256 118.136C101.189 118.238 101.121 118.34 101.019 118.408L37.2365 163.965L12.4831 189.645L2.71736 206.945C2.71736 206.979 2.68345 207.013 2.68345 207.013C0.920193 209.761 2.107 216.545 5.53179 223.16C8.88876 229.639 13.7377 234.524 17.0608 234.761C17.1964 234.761 17.2981 234.795 17.3999 234.863Z" fill="black"/>
<path d="M100.675 117.559L140.925 32.9229H140.959C130.956 54.3618 138.246 97.8164 160.999 141.78C183.82 185.811 215.219 216.918 238.549 221.192L237.904 221.158L145.435 205.317L143.299 204.943C132.55 203.044 118.206 189.068 107.932 169.121C97.3863 148.666 95.5213 128.279 100.201 118.577L100.675 117.559Z" fill="white"/>
<path d="M238.55 221.939C238.55 221.939 238.516 221.939 238.55 221.939L237.872 221.905C237.838 221.905 237.804 221.905 237.77 221.905L145.301 206.063L143.165 205.69C131.805 203.688 117.394 189.136 107.255 169.494C95.7604 147.173 95.1839 127.295 99.5243 118.272L100.033 117.254L140.283 32.6514C140.384 32.4818 140.52 32.3461 140.723 32.2782C140.927 32.2104 141.13 32.2104 141.3 32.3122C141.673 32.4818 141.842 32.9228 141.673 33.2959C131.466 55.1759 139.537 98.6644 161.713 141.475C183.923 184.352 214.882 216.104 238.72 220.48C239.093 220.548 239.364 220.887 239.33 221.294C239.228 221.633 238.923 221.939 238.55 221.939ZM137.061 42.8281L101.355 117.898L100.847 118.916C96.5403 127.872 97.7949 147.886 108.578 168.782C118.513 188.05 132.518 202.297 143.436 204.197L145.572 204.57L228.615 218.818C206.134 208.946 179.854 179.807 160.357 142.153C140.995 104.77 132.348 66.8113 137.061 42.8281Z" fill="black"/>
<path d="M34.6578 238.221C34.6239 238.221 34.59 238.221 34.59 238.221L16.8217 236.321C16.72 236.321 16.6183 236.287 16.5166 236.22C12.651 235.609 7.7681 230.724 4.20768 223.872C0.4438 216.612 -0.67519 209.557 1.39325 206.232L1.42715 206.13L11.1929 188.83C11.3963 188.457 11.8372 188.355 12.2102 188.559C12.5831 188.762 12.6849 189.203 12.4814 189.576L2.71569 206.945C2.71569 206.978 2.68178 207.012 2.68178 207.012C0.918523 209.76 2.10533 216.545 5.53012 223.159C8.88709 229.639 13.736 234.523 17.0591 234.761C17.1608 234.761 17.2965 234.795 17.3643 234.863L34.7256 236.728C35.1325 236.762 35.4377 237.136 35.3699 237.543C35.3359 237.916 35.0308 238.221 34.6578 238.221Z" fill="black"/>
<path d="M35.843 237.475C30.0785 237.068 22.0082 228.893 16.142 217.597C9.93671 205.622 8.47863 193.24 12.2764 188.831L2.13769 206.47L2.06987 206.606C0.137068 209.591 1.25606 216.477 4.8843 223.499C8.44472 230.419 13.4632 235.236 16.9897 235.508L16.888 235.576L35.843 237.475Z" fill="white"/>
<path d="M35.8436 238.222C35.8097 238.222 35.8097 238.222 35.7758 238.222C35.6401 238.222 35.4706 238.188 35.335 238.188L16.8208 236.322C16.719 236.322 16.6173 236.288 16.5156 236.22C12.65 235.61 7.76712 230.725 4.2067 223.873C0.442823 216.613 -0.676167 209.557 1.39227 206.233L1.42618 206.131L10.3442 190.595C10.6833 189.713 11.1241 188.932 11.6666 188.288C11.904 187.983 12.3448 187.949 12.65 188.152C12.9552 188.39 13.0569 188.797 12.8534 189.136L11.5988 191.273C9.5982 196.667 11.5649 207.251 16.719 217.156C22.314 227.977 29.9435 235.881 35.4028 236.593L35.8097 236.627C36.2166 236.661 36.5218 237.034 36.4879 237.442C36.5218 237.916 36.2166 238.222 35.8436 238.222ZM17.3633 234.863L30.3165 236.186C25.3319 232.998 19.8387 226.417 15.4644 217.936C11.2258 209.761 9.12347 201.28 9.46256 195.174L2.71471 206.945C2.71471 206.979 2.6808 207.013 2.6808 207.013C0.917546 209.761 2.10435 216.545 5.52914 223.16C8.88611 229.639 13.7351 234.524 17.0581 234.762C17.1599 234.762 17.2955 234.796 17.3633 234.863Z" fill="black"/>
<path d="M69.4838 232.149L70.9758 231.844C62.9055 233.54 50.1558 221.328 41.1699 203.993C31.9807 186.286 30.2513 168.612 36.7618 163.388L35.9141 164.236L12.3475 188.728C8.48187 193.07 9.90604 205.52 16.1453 217.562C22.1471 229.164 30.6582 237.441 36.4566 237.407L69.4838 232.149Z" fill="black"/>
<path d="M36.4227 238.187C30.2513 238.187 21.6724 229.876 15.4671 217.936C9.16002 205.723 7.5663 192.969 11.771 188.253L34.8968 164.236C35.3037 163.694 35.7784 163.219 36.2871 162.812C36.5922 162.574 37.033 162.608 37.3043 162.879C37.5756 163.185 37.5756 163.626 37.3043 163.897L35.9819 165.288C31.2686 171.598 33.6083 187.745 41.8481 203.654C50.7322 220.819 63.1428 232.59 70.7384 231.165L70.8401 231.131C71.247 231.064 71.62 231.301 71.7217 231.708C71.7896 232.115 71.5522 232.488 71.1453 232.59C71.1114 232.59 71.0775 232.59 71.0436 232.624L69.6533 232.895H69.6194L36.5922 238.153C36.5244 238.153 36.4566 238.187 36.4227 238.187ZM32.9301 168.443L12.89 189.271C9.16002 193.478 10.8555 205.757 16.8234 217.257C22.6557 228.519 30.8956 236.661 36.4227 236.695L65.5843 232.047C57.7174 229.266 48.0195 218.784 40.5257 204.367C33.4048 190.628 30.6582 176.652 32.9301 168.443Z" fill="black"/>
<path d="M178.193 104.058C172.869 106.771 173.649 119.357 180.431 131.908C191.79 152.906 200.844 150.43 201.895 150.056C201.929 150.056 201.929 150.09 201.895 150.09L182.398 165.796C176.667 157.757 171.208 148.801 166.189 139.133C161.408 129.873 157.373 120.646 154.186 111.69L178.193 104.058Z" fill="black"/>
<path d="M182.398 166.543C182.365 166.543 182.331 166.543 182.297 166.543C182.093 166.509 181.924 166.407 181.788 166.237C175.922 157.994 170.463 148.971 165.546 139.506C160.833 130.415 156.763 121.154 153.508 111.995C153.44 111.792 153.44 111.588 153.542 111.419C153.644 111.249 153.779 111.113 153.983 111.045L177.99 103.413C178.363 103.311 178.77 103.481 178.906 103.854C179.042 104.227 178.906 104.634 178.567 104.804C177.414 105.38 176.566 106.534 176.058 108.23C174.396 113.556 176.431 122.986 181.144 131.636C192.232 152.125 200.777 149.785 201.693 149.446C202.032 149.31 202.439 149.48 202.608 149.785C202.778 150.09 202.71 150.531 202.439 150.769L182.873 166.373C182.738 166.475 182.568 166.543 182.398 166.543ZM155.17 112.165C158.391 121.019 162.324 129.974 166.868 138.794C171.615 147.953 176.905 156.671 182.568 164.711L199.489 151.074C195.623 150.904 188.333 148.021 179.788 132.247C174.837 123.122 172.802 113.488 174.599 107.687C174.837 106.941 175.108 106.296 175.447 105.686L155.17 112.165Z" fill="black"/>
</svg>
