<svg width="434" height="255" viewBox="0 0 434 255" fill="none" xmlns="http://www.w3.org/2000/svg">
<path d="M431.16 245.788C429.563 248.684 426.575 250.806 422.206 252.13C417.834 253.456 412.144 253.962 405.266 253.665C391.514 253.072 373.18 249.279 351.527 242.652C308.233 229.401 251.82 204.865 192.563 172.179C133.306 139.494 82.4601 104.866 48.1569 75.3154C31.0008 60.536 18.0123 47.0515 10.1745 35.7359C6.25474 30.0769 3.647 24.9939 2.43617 20.5888C1.2263 16.1871 1.42674 12.5275 3.02399 9.63178C4.62124 6.73608 7.60975 4.61434 11.9782 3.28965C16.3502 1.9639 22.0406 1.45814 28.9182 1.75482C42.6703 2.34808 61.0046 6.14099 82.6574 12.7683C125.952 26.0193 182.364 50.5548 241.621 83.2406C300.878 115.926 351.724 150.554 386.027 180.105C403.184 194.884 416.172 208.369 424.01 219.684C427.93 225.343 430.537 230.426 431.748 234.831C432.958 239.233 432.758 242.893 431.16 245.788Z" stroke="black" stroke-width="1.43869"/>
</svg>
