<svg width="433" height="255" viewBox="0 0 433 255" fill="none" xmlns="http://www.w3.org/2000/svg">
<path d="M430.643 245.548C429.045 248.443 426.057 250.565 421.688 251.89C417.317 253.215 411.626 253.721 404.749 253.424C390.996 252.831 372.662 249.038 351.009 242.411C307.715 229.16 251.303 204.625 192.046 171.939C132.788 139.253 81.9426 104.626 47.6394 75.0747C30.4832 60.2952 17.4947 46.8108 9.6569 35.4952C5.73716 29.8362 3.12942 24.7532 1.91859 20.348C0.708726 15.9464 0.909161 12.2868 2.50641 9.39106C4.10366 6.49536 7.09217 4.37362 11.4606 3.04893C15.8326 1.72318 21.523 1.21741 28.4006 1.5141C42.1527 2.10735 60.487 5.90027 82.1399 12.5275C125.434 25.7786 181.846 50.3141 241.104 82.9999C300.361 115.686 351.207 150.313 385.51 179.864C402.666 194.643 415.654 208.128 423.492 219.443C427.412 225.102 430.02 230.185 431.231 234.591C432.44 238.992 432.24 242.652 430.643 245.548Z" stroke="black" stroke-width="1.43869"/>
</svg>
