<svg width="433" height="254" viewBox="0 0 433 254" fill="none" xmlns="http://www.w3.org/2000/svg">
<path d="M430.68 245.028C429.083 247.924 426.094 250.045 421.726 251.37C417.354 252.696 411.663 253.202 404.786 252.905C391.034 252.312 372.699 248.519 351.046 241.892C307.752 228.641 251.34 204.105 192.083 171.419C132.826 138.733 81.9797 104.106 47.6765 74.5552C30.5203 59.7757 17.5318 46.2912 9.69401 34.9757C5.77427 29.3166 3.16653 24.2337 1.9557 19.8285C0.745836 15.4269 0.946271 11.7672 2.54352 8.87153C4.14077 5.97582 7.12928 3.85409 11.4978 2.52939C15.8697 1.20365 21.5601 0.697882 28.4377 0.994569C42.1898 1.58782 60.5241 5.38073 82.177 12.008C125.471 25.259 181.883 49.7946 241.141 82.4804C300.398 115.166 351.244 149.793 385.547 179.344C402.703 194.124 415.692 207.608 423.529 218.924C427.449 224.583 430.057 229.666 431.268 234.071C432.478 238.473 432.277 242.132 430.68 245.028Z" stroke="black" stroke-width="1.43869"/>
</svg>
