<svg width="83" height="83" viewBox="0 0 83 83" fill="none" xmlns="http://www.w3.org/2000/svg">
<path d="M62.4503 62.3924C73.7987 51.0394 73.7987 32.6325 62.4503 21.2795C51.1018 9.92645 32.7023 9.92644 21.3539 21.2795C10.0054 32.6325 10.0054 51.0394 21.3539 62.3924C32.7023 73.7454 51.1018 73.7454 62.4503 62.3924Z" fill="#FFBD44"/>
<path d="M41.8957 71.6415C25.4838 71.6415 12.0898 58.276 12.0898 41.8237C12.0898 25.4052 25.4499 12.0059 41.8957 12.0059C58.3415 12.0059 71.7015 25.3713 71.7015 41.8237C71.7015 58.2421 58.3415 71.6415 41.8957 71.6415ZM41.8957 13.4984C26.2976 13.4984 13.5818 26.1854 13.5818 41.8237C13.5818 57.428 26.2637 70.1489 41.8957 70.1489C57.4937 70.1489 70.2095 57.4619 70.2095 41.8237C70.2095 26.2194 57.5276 13.4984 41.8957 13.4984Z" fill="#FFBD44"/>
<path d="M49.7648 44.7072C48.1372 44.7072 46.713 45.4874 45.7636 46.7086L35.9639 42.8754C35.9639 42.7397 35.9978 42.6379 35.9978 42.5022C35.9978 42.2648 35.9639 42.0273 35.93 41.7899L45.967 37.1425C46.8826 38.1941 48.2389 38.8725 49.7648 38.9065C52.5453 38.9065 54.8511 36.6336 54.8511 33.8181C54.8511 31.0025 52.5792 28.6958 49.7648 28.6958C46.9843 28.6958 44.6785 30.9686 44.6785 33.7842C44.6785 34.0216 44.7124 34.2591 44.7463 34.4965L34.7093 39.1439C33.7938 38.0923 32.4374 37.4139 30.9115 37.3799C28.131 37.3799 25.8252 39.6527 25.8252 42.4683C25.8252 45.2839 28.0971 47.5906 30.9115 47.5906C32.5391 47.5906 33.9633 46.8104 34.9128 45.5892L44.7124 49.4224C44.7124 49.5581 44.6785 49.6599 44.6785 49.7956C44.6785 52.6111 46.9504 54.9178 49.7648 54.9178C52.5453 54.9178 54.8511 52.645 54.8511 49.8295C54.8172 47.0139 52.5453 44.7411 49.7648 44.7072Z" fill="black"/>
</svg>
