<svg width="180" height="180" viewBox="0 0 180 180" fill="none" xmlns="http://www.w3.org/2000/svg">
<path fill-rule="evenodd" clip-rule="evenodd" d="M114.542 73.7679L85.5896 120.256L121.153 120.651L149.594 73.7679H114.542Z" fill="#FFBD44"/>
<path fill-rule="evenodd" clip-rule="evenodd" d="M157.632 28.9917L106.396 71.0454H171L157.632 28.9917Z" fill="#FFBD44"/>
<path d="M88.3711 86.5043H45.6554L72.8283 109.471L88.3711 86.5043Z" fill="#FFBD44"/>
<path fill-rule="evenodd" clip-rule="evenodd" d="M71.8445 110.924L44.6021 88.2202L3 155.992H41.3447L70.8606 112.378L71.8445 110.924Z" fill="#FFBD44"/>
<path fill-rule="evenodd" clip-rule="evenodd" d="M72.8283 109.471L88.3711 86.5043C91.7095 89.9212 94.9793 93.4662 98.2423 97.0378L84.0939 118.907L72.8283 109.471Z" fill="#FFBD44"/>
<path fill-rule="evenodd" clip-rule="evenodd" d="M12.6497 151.455L51.6187 84.28H85.4555H88.2127L89.5962 81.8951H50.2451L8.50906 153.84H47.8602L77.088 103.457L75.2931 101.798L46.4865 151.455H12.6497Z" fill="#282828"/>
<path fill-rule="evenodd" clip-rule="evenodd" d="M89.5962 118.265L50.2451 81.8951H89.5962L105.298 96.4074L104.057 98.5083L88.6629 84.28H88.2127H56.3392L75.2931 101.798L77.088 103.457L90.5295 115.88H122.853L93.7996 115.88H126.367L128.947 118.265H89.5962Z" fill="#282828"/>
<path fill-rule="evenodd" clip-rule="evenodd" d="M161.465 24L104.4 68.4191H176L161.465 24ZM160.254 27.9655L111.346 66.0341H120.465H123.233H157.027H159.816H172.71L160.254 27.9655Z" fill="#282828"/>
<path fill-rule="evenodd" clip-rule="evenodd" d="M157.027 66.0341L127.594 115.88H126.367H93.7996L104.057 98.5083L105.298 96.4074L123.233 66.0341H120.465L89.5962 118.265H128.947L159.816 66.0341H157.027Z" fill="#282828"/>
</svg>
