<svg width="194" height="100" viewBox="0 0 194 100" fill="none" xmlns="http://www.w3.org/2000/svg">
<path fill-rule="evenodd" clip-rule="evenodd" d="M82.542 33.8137L61.1171 68.4317L87.4342 68.7258L108.481 33.8137H82.542Z" fill="white"/>
<path fill-rule="evenodd" clip-rule="evenodd" d="M114.429 0.470703L76.5143 31.7863H124.322L114.429 0.470703Z" fill="white"/>
<path d="M63.1754 43.2979H31.5654L51.6736 60.4001L63.1754 43.2979Z" fill="white"/>
<path fill-rule="evenodd" clip-rule="evenodd" d="M50.9456 61.4826L30.7859 44.5757L0 99.0579H28.3755L50.2175 62.5652L50.9456 61.4826Z" fill="white"/>
<path fill-rule="evenodd" clip-rule="evenodd" d="M51.6736 60.4001L63.1754 43.2979C65.6458 45.8424 68.0656 48.4822 70.4802 51.1418L60.0103 67.4272L51.6736 60.4001Z" fill="white"/>
<path fill-rule="evenodd" clip-rule="evenodd" d="M5.84246 95.6818L36.0092 41.5256H61.0407H63.0804L64.1038 39.7613H34.993L2.7793 97.4461H31.8902L54.8506 55.7121L53.5228 54.4849L30.874 95.6818H5.84246Z" fill="#FFBD44"/>
<path fill-rule="evenodd" clip-rule="evenodd" d="M64.1038 66.6669L34.993 39.7613H64.1038L75.7196 50.4971L74.8019 52.0513L63.4134 41.5256H63.0804H39.5013L53.5228 54.4849L54.8506 55.7121L64.7943 64.9026H88.7065L67.2134 64.9026H91.3058L93.2147 66.6669H64.1038Z" fill="#FFBD44"/>
<path fill-rule="evenodd" clip-rule="evenodd" d="M118.396 4.95911e-05L81 29.792H128.023L118.396 4.95911e-05ZM117.5 2.93359L86.1389 28.0277H86.9399H88.9874H113.988H116.051H125.589L117.5 2.93359Z" fill="#FFBD44"/>
<path fill-rule="evenodd" clip-rule="evenodd" d="M113.988 28.0277L92.2137 64.9026H91.3058H67.2134L74.8019 52.0513L75.7196 50.4971L88.9874 28.0277H86.9399L64.1038 66.6669H93.2147L116.051 28.0277H113.988Z" fill="#FFBD44"/>
<path d="M174 97.9336V93.9565H177.194V77.9107H174V73.9336H186.5C187.981 73.9336 189.266 74.185 190.354 74.6879C191.465 75.1679 192.322 75.865 192.924 76.7793C193.549 77.6707 193.861 78.745 193.861 80.0022V80.345C193.861 81.4422 193.653 82.345 193.236 83.0536C192.819 83.7393 192.322 84.2765 191.743 84.665C191.188 85.0307 190.655 85.2936 190.146 85.4536V86.0707C190.655 86.2079 191.211 86.4707 191.813 86.8593C192.414 87.225 192.924 87.7622 193.34 88.4707C193.78 89.1793 194 90.105 194 91.2479V91.5907C194 92.9164 193.688 94.0593 193.063 95.0193C192.438 95.9565 191.569 96.6765 190.458 97.1793C189.37 97.6822 188.097 97.9336 186.639 97.9336H174ZM181.778 93.8193H186.083C187.079 93.8193 187.877 93.5793 188.479 93.0993C189.104 92.6193 189.417 91.9336 189.417 91.0422V90.6993C189.417 89.8079 189.116 89.1222 188.514 88.6422C187.912 88.1622 187.102 87.9222 186.083 87.9222H181.778V93.8193ZM181.778 83.8079H186.014C186.963 83.8079 187.738 83.5679 188.34 83.0879C188.965 82.6079 189.278 81.945 189.278 81.0993V80.7565C189.278 79.8879 188.977 79.225 188.375 78.7679C187.773 78.2879 186.986 78.0479 186.014 78.0479H181.778V83.8079Z" fill="white"/>
<path d="M156 97.9336V73.9336H170.803V78.0479H160.342V83.7736H169.882V87.8879H160.342V93.8193H171V97.9336H156Z" fill="white"/>
<path d="M127.074 97.9336L124 73.9336H128.377L130.649 94.7793H131.251L134.191 73.9336H141.809L144.749 94.7793H145.351L147.623 73.9336H152L148.926 97.9336H141.308L138.301 76.6079H137.699L134.692 97.9336H127.074Z" fill="white"/>
<path d="M97 97.9336V73.9336H112.789V78.0479H101.632V83.7736H111.807V87.8879H101.632V93.8193H113V97.9336H97Z" fill="white"/>
<path d="M75 97.9336V73.9336H79.5344V83.8422H88.4656V73.9336H93V97.9336H88.4656V87.9565H79.5344V97.9336H75Z" fill="white"/>
<path d="M60.1778 97.9336V78.0479H53V73.9336H72V78.0479H64.8222V97.9336H60.1778Z" fill="white"/>
<path d="M178 66.9336V41.9336H193.789V46.2193H182.632V52.1836H192.807V56.4693H182.632V62.6479H194V66.9336H178Z" fill="white"/>
<path d="M162.88 67.9336C161.228 67.9336 159.725 67.5526 158.371 66.7907C157.04 66.005 155.973 64.8741 155.17 63.3979C154.39 61.8979 154 60.0765 154 57.9336V51.9336C154 48.7193 154.872 46.255 156.616 44.5407C158.36 42.8026 160.723 41.9336 163.707 41.9336C166.667 41.9336 168.95 42.755 170.556 44.3979C172.185 46.0169 173 48.2193 173 51.005V51.1479H168.525V50.8622C168.525 49.9812 168.342 49.1836 167.975 48.4693C167.63 47.755 167.103 47.1955 166.391 46.7907C165.68 46.3622 164.785 46.1479 163.707 46.1479C162.1 46.1479 160.838 46.6598 159.92 47.6836C159.002 48.7074 158.543 50.1003 158.543 51.8622V58.005C158.543 59.7431 159.002 61.1479 159.92 62.2193C160.838 63.2669 162.123 63.7907 163.775 63.7907C165.428 63.7907 166.632 63.3384 167.389 62.4336C168.147 61.5288 168.525 60.386 168.525 59.005V58.6479H162.812V54.6479H173V67.4336H168.801V65.0407H168.181C168.021 65.4455 167.757 65.8741 167.389 66.3265C167.045 66.7788 166.518 67.1598 165.806 67.4693C165.095 67.7788 164.12 67.9336 162.88 67.9336Z" fill="white"/>
<path d="M130 66.9336V62.7907H133.354V46.0765H130V41.9336H140.5C143.927 41.9336 146.528 42.7907 148.302 44.505C150.101 46.1955 151 48.7193 151 52.0765V56.7907C151 60.1479 150.101 62.6836 148.302 64.3979C146.528 66.0884 143.927 66.9336 140.5 66.9336H130ZM138.167 62.6479H140.573C142.517 62.6479 143.939 62.1479 144.839 61.1479C145.738 60.1479 146.187 58.7431 146.187 56.9336V51.9336C146.187 50.1003 145.738 48.6955 144.839 47.7193C143.939 46.7193 142.517 46.2193 140.573 46.2193H138.167V62.6479Z" fill="white"/>
<path d="M116.5 67.9336C114.512 67.9336 112.802 67.5573 111.369 66.8047C109.959 66.0279 108.872 64.9355 108.109 63.5274C107.37 62.0951 107 60.4079 107 58.4658V51.1625L111.577 41.9336V58.6115C111.577 60.1652 111.993 61.3911 112.825 62.2893C113.68 63.1876 114.905 63.6367 116.5 63.6367C118.095 63.6367 119.308 63.1876 120.141 62.2893C120.996 61.3911 121.423 60.1652 121.423 58.6115V41.9336H126V58.4658C126 60.4079 125.619 62.0951 124.856 63.5274C124.116 64.9355 123.03 66.0279 121.597 66.8047C120.187 67.5573 118.488 67.9336 116.5 67.9336Z" fill="white"/>
</svg>
